<svg width="1600" height="465" viewBox="0 0 1600 465" fill="none" xmlns="http://www.w3.org/2000/svg">
<path d="M500.882 151.444C508.906 151.444 515.305 153.679 520.079 158.25C524.853 162.719 527.189 168.712 527.189 176.127C527.189 183.643 524.751 189.737 519.876 194.207C515 198.777 508.398 201.012 500.171 201.012H483.31V222.85H465.737V151.444H500.882ZM498.85 186.284C502.304 186.284 504.944 185.37 506.874 183.541C508.804 181.713 509.82 179.275 509.82 176.228C509.82 173.283 508.804 170.946 506.874 169.118C504.843 167.29 502.202 166.376 498.85 166.376H483.31V186.182H498.85V186.284Z" fill="#00426D"/>
<path d="M594.944 160.687C602.359 167.899 606.015 176.736 606.015 187.198C606.015 197.558 602.359 206.395 594.944 213.607C587.529 220.818 578.591 224.475 567.926 224.475C557.261 224.475 548.221 220.818 540.907 213.607C533.492 206.395 529.836 197.558 529.836 187.198C529.836 176.736 533.492 167.899 540.907 160.687C548.221 153.476 557.261 149.819 567.926 149.819C578.591 149.819 587.631 153.476 594.944 160.687ZM582.552 202.332C586.513 198.371 588.444 193.292 588.444 187.299C588.444 181.205 586.513 176.126 582.552 172.063C578.591 168 573.715 165.969 567.926 165.969C562.034 165.969 557.159 168 553.299 172.063C549.338 176.126 547.408 181.205 547.408 187.299C547.408 193.292 549.338 198.371 553.299 202.332C557.159 206.395 562.034 208.325 567.926 208.325C573.715 208.325 578.591 206.293 582.552 202.332Z" fill="#00426D"/>
<path d="M664.521 222.85H611.704V151.444H629.275V207.513H664.521V222.85Z" fill="#00426D"/>
<path d="M687.679 151.444H670.107V222.85H687.679V151.444Z" fill="#00426D"/>
<path d="M732.469 166.782V222.85H714.897V166.782H691.738V151.444H755.628V166.782H732.469Z" fill="#00426D"/>
<path d="M815.455 222.85H759.692V151.444H815.049V166.579H777.264V179.986H812.002V194.308H777.264V207.716H815.455V222.85Z" fill="#00426D"/>
<path d="M866.848 222.85L843.487 195.933H839.728V222.85H822.156V151.444H839.728V179.783H842.369L866.645 151.444H887.772L857.402 187.198L889.905 222.85H866.848Z" fill="#00426D"/>
<path d="M959.894 222.85H945.37L909.21 181.51V222.85H891.536V151.444H906.163L942.424 194.105V151.444H959.894V222.85Z" fill="#00426D"/>
<path d="M985.687 151.444H968.114V222.85H985.687V151.444Z" fill="#00426D"/>
<path d="M1038.61 222.85L1015.25 195.933H1011.49V222.85H993.815V151.444H1011.49V179.783H1014.03L1038.41 151.444H1059.53L1029.06 187.198L1061.67 222.85H1038.61Z" fill="#00426D"/>
<path d="M1136.63 222.85H1083.81V151.444H1101.39V207.513H1136.63V222.85Z" fill="#00426D"/>
<path d="M1177.47 151.444C1185.49 151.444 1191.89 153.679 1196.66 158.25C1201.44 162.719 1203.77 168.712 1203.77 176.127C1203.77 183.643 1201.34 189.737 1196.46 194.207C1191.59 198.777 1184.98 201.012 1176.76 201.012H1159.89V222.85H1142.32V151.444H1177.47ZM1175.44 186.284C1178.89 186.284 1181.53 185.37 1183.46 183.541C1185.39 181.713 1186.4 179.275 1186.4 176.228C1186.4 173.283 1185.39 170.946 1183.46 169.118C1181.43 167.29 1178.79 166.376 1175.44 166.376H1159.89V186.182H1175.44V186.284Z" fill="#00426D"/>
<path d="M1260.34 201.419C1260.34 208.123 1257.8 213.709 1252.82 217.975C1247.85 222.241 1241.45 224.374 1233.63 224.374C1226.11 224.374 1219.81 222.343 1214.73 218.28C1209.66 214.217 1206.71 208.732 1206 201.825L1222.66 198.778C1223.16 202.333 1224.38 205.076 1226.21 207.005C1228.14 208.935 1230.58 209.849 1233.73 209.849C1236.67 209.849 1239.21 209.037 1241.14 207.412C1243.07 205.787 1243.99 203.755 1243.99 201.216C1243.99 198.778 1243.17 196.848 1241.45 195.426C1239.72 194.004 1237.38 193.293 1234.34 193.293H1226.11V180.292H1233.63C1236.57 180.292 1239.01 179.581 1240.64 178.159C1242.36 176.737 1243.17 174.807 1243.17 172.471C1243.17 170.033 1242.26 168.002 1240.53 166.478C1238.81 164.954 1236.47 164.243 1233.63 164.243C1230.68 164.243 1228.14 165.157 1226.31 167.087C1224.38 169.017 1223.27 171.861 1222.96 175.721L1206.81 172.674C1207.62 165.665 1210.37 160.079 1215.24 155.914C1220.12 151.75 1226.21 149.718 1233.53 149.718C1241.14 149.718 1247.34 151.851 1252.01 156.016C1256.79 160.18 1259.12 165.564 1259.12 172.268C1259.12 178.87 1256.58 183.644 1251.4 186.691C1257.39 189.637 1260.34 194.614 1260.34 201.419Z" fill="#00426D"/>
<path d="M1283.7 151.444H1266.13V222.85H1283.7V151.444Z" fill="#00426D"/>
<path d="M310.132 389.023C308.507 388.211 305.561 391.867 304.342 393.188C303.936 393.594 303.53 393.899 303.225 394.407C302.92 394.813 302.514 395.219 302.209 395.524C301.702 396.032 301.397 396.336 300.991 396.641C300.584 396.844 300.28 397.047 299.975 397.047C299.061 397.251 297.842 396.54 296.115 395.118C294.49 393.696 293.677 392.477 293.474 391.766C293.373 390.648 294.287 388.109 296.42 384.148C298.553 380.288 299.467 377.139 299.162 374.701C299.061 373.787 298.756 373.076 298.451 372.67C298.045 372.264 297.537 372.061 296.826 372.162C296.521 372.162 296.115 372.67 295.607 373.584C295.201 374.498 294.49 375.717 293.881 377.546C292.662 380.796 291.646 383.335 290.833 385.062C290.122 386.687 289.615 387.601 289.31 387.804C287.481 388.515 286.262 389.328 285.653 390.242C285.145 391.156 284.84 392.578 284.84 394.61V395.93C284.434 397.352 284.028 398.673 283.52 399.892C283.114 401.11 282.606 402.126 282.098 403.142C281.996 403.548 281.895 403.751 281.692 403.954C281.489 404.158 281.184 404.361 280.879 404.361C280.676 404.361 280.676 404.361 280.574 404.361C280.473 404.259 280.473 404.158 280.371 403.954C280.371 403.65 280.371 403.04 280.473 402.025C280.574 401.11 280.777 399.688 280.981 398.063C281.285 396.235 281.59 394.508 281.793 392.68C281.996 390.852 282.301 389.125 282.606 387.296C282.911 385.062 283.215 383.03 283.723 381.304C284.13 379.475 284.536 378.053 284.942 376.835C286.974 371.248 288.396 366.677 289.208 362.817C290.021 358.958 290.325 356.114 290.021 354.082C289.716 352.254 289.31 350.933 288.497 350.019C287.786 349.105 286.77 348.8 285.551 349.004C285.348 349.004 285.044 349.105 284.942 349.308C284.739 349.511 284.536 349.715 284.434 350.019C283.926 351.238 283.52 352.457 283.114 353.777C282.707 355.098 282.403 356.52 282.2 357.942C282.2 358.45 281.996 358.856 281.895 359.262C281.692 359.669 281.59 359.973 281.488 360.177C281.285 360.684 280.981 361.802 280.574 363.325C280.168 364.849 279.66 366.779 279.152 369.217C278.543 371.756 278.137 373.889 277.832 375.412C277.426 377.038 277.223 378.155 277.121 378.866C276.613 379.679 276.105 380.796 275.496 382.218C274.988 383.64 274.379 385.367 273.769 387.398C273.261 388.82 272.855 390.141 272.347 391.359C271.737 392.477 271.128 393.492 270.315 394.305C269.909 394.813 269.604 395.321 269.3 395.625C268.995 396.032 268.792 396.336 268.69 396.743C268.589 397.149 268.487 397.454 268.386 397.657C268.284 397.758 267.167 399.079 266.76 399.485C266.354 399.993 265.948 400.501 265.542 400.907C264.932 401.517 264.424 401.923 263.917 402.228C263.409 402.532 262.799 402.634 262.291 402.736C261.885 402.736 261.479 402.736 261.073 402.634C260.768 402.532 260.463 402.431 260.362 402.025C260.158 401.821 259.854 401.212 259.346 399.993C258.838 398.774 258.533 397.962 258.127 397.352C257.924 396.336 257.619 395.422 257.314 394.508C257.01 393.492 256.705 392.68 256.299 391.664C255.892 390.648 255.283 389.937 254.47 389.531C253.658 389.125 252.743 388.922 251.626 389.125C251.22 389.226 250.814 389.328 250.509 389.633C250.103 389.937 249.798 390.242 249.595 390.852C248.985 392.172 247.665 393.797 245.837 395.829C244.008 397.962 242.789 399.587 242.078 400.907L241.977 401.415C241.977 401.415 241.367 402.329 240.961 402.532C240.656 402.736 240.352 402.837 239.945 402.939C239.437 403.04 238.93 402.837 238.422 402.431C237.914 402.025 237.508 401.415 237 400.501C236.289 398.876 235.476 397.251 234.562 395.524C233.851 394.61 233.14 394 232.429 393.594C231.616 393.188 230.702 393.086 229.788 393.289C229.28 393.289 228.772 393.492 228.163 393.899C227.553 394.305 226.843 394.711 226.03 395.219C225.42 395.829 224.811 396.336 224.303 396.844C223.795 397.352 223.389 397.86 222.983 398.266C222.78 398.673 222.576 398.977 222.475 399.181C222.373 399.485 222.17 399.79 222.068 399.892C221.561 400.399 221.154 400.907 220.748 401.517C220.342 402.025 220.139 402.634 219.936 403.142C219.326 403.853 218.818 404.462 218.31 405.072C217.904 405.681 217.599 406.189 217.396 406.697C217.295 406.9 217.091 407.103 216.99 407.306C216.888 407.509 216.787 407.611 216.584 407.713C216.38 407.509 216.177 407.306 216.177 407.103C216.177 406.9 216.177 406.697 216.177 406.392C216.177 406.087 216.279 405.681 216.381 405.275C216.584 404.767 216.685 404.158 216.888 403.447C217.599 399.993 218.006 397.352 218.209 395.219C218.514 393.188 218.514 391.766 218.412 391.055C218.209 389.734 217.803 388.82 217.193 388.109C216.584 387.5 215.67 387.296 214.654 387.5C213.537 387.601 212.521 388.007 211.607 388.617C210.692 389.226 209.88 390.141 209.169 391.258C208.356 392.578 207.544 393.594 206.934 394.61C206.325 395.422 205.817 396.235 205.411 396.844C204.496 398.266 203.684 399.485 202.973 400.501C202.262 401.517 201.754 402.431 201.246 403.04C200.738 403.751 200.23 404.361 199.824 404.869C199.418 405.376 199.012 405.783 198.808 406.087C198.605 406.494 198.402 406.9 198.199 407.103C197.996 407.408 197.894 407.611 197.793 407.916V408.017C197.386 408.322 197.082 408.728 196.777 409.135C196.472 409.541 196.066 409.947 195.761 410.252C195.253 410.76 194.847 411.166 194.542 411.369C194.238 411.572 193.831 411.775 193.527 411.775C192.612 411.979 191.394 411.268 189.769 409.846C188.143 408.424 187.229 407.306 187.128 406.494C186.924 405.376 187.94 402.837 190.073 398.876C192.206 394.914 193.12 391.766 192.816 389.429C192.714 388.515 192.409 387.804 192.104 387.398C191.698 386.992 191.19 386.789 190.479 386.89C190.175 386.992 189.769 387.398 189.261 388.312C188.753 389.226 188.143 390.547 187.432 392.274C186.213 395.625 185.198 398.063 184.487 399.79C183.674 401.517 183.166 402.431 182.963 402.532C181.135 403.243 179.916 404.056 179.306 404.97C178.697 405.884 178.494 407.306 178.494 409.338V410.658C178.088 412.08 177.681 413.401 177.173 414.62C176.767 415.838 176.259 416.854 175.751 417.87C175.65 418.175 175.548 418.581 175.345 418.784C175.142 418.987 174.939 419.089 174.634 419.19C174.532 419.19 174.329 419.19 174.329 419.089C174.228 418.987 174.126 418.886 174.126 418.682C174.126 418.378 174.126 417.768 174.228 416.753C174.329 415.838 174.532 414.518 174.837 412.893C175.142 411.166 175.345 409.338 175.65 407.509C175.853 405.783 176.158 403.954 176.462 402.228C176.869 399.993 177.173 397.962 177.58 396.133C177.986 394.407 178.392 392.883 178.799 391.664C180.83 386.179 182.15 381.507 183.065 377.749C183.776 373.889 184.08 370.943 183.776 368.912C183.572 367.084 183.065 365.763 182.354 364.95C181.643 364.036 180.627 363.732 179.408 363.935C179.205 363.935 179.002 364.036 178.697 364.341C178.494 364.544 178.392 364.747 178.189 365.052C177.783 366.169 177.376 367.49 176.869 368.709C176.462 370.029 176.158 371.451 175.955 372.975C175.955 373.483 175.751 373.889 175.65 374.295C175.447 374.6 175.345 374.905 175.244 375.108C175.04 375.717 174.736 376.733 174.329 378.358C173.923 379.882 173.415 381.913 172.907 384.351C172.298 386.89 171.79 388.922 171.485 390.547C171.181 392.172 170.977 393.391 170.876 394C170.368 394.813 169.86 395.93 169.251 397.352C168.743 398.774 168.133 400.501 167.524 402.532C167.016 403.954 166.508 405.275 166 406.494C165.492 407.611 164.782 408.627 164.071 409.439C163.664 409.947 163.36 410.353 163.055 410.76C162.75 411.166 162.547 411.572 162.445 411.877C162.344 412.283 162.242 412.588 162.141 412.791C162.039 412.994 161.938 413.096 161.836 413.198C161.633 413.502 161.328 413.807 160.922 414.01C160.617 414.213 160.414 414.416 160.211 414.518C159.5 415.127 158.687 415.534 157.773 416.042C156.859 416.448 155.742 416.854 154.624 417.057C153.913 416.956 153.202 416.956 152.694 416.854C152.085 416.753 151.679 416.549 151.374 416.448C150.968 416.245 150.561 415.94 150.257 415.534C149.952 415.026 149.749 414.518 149.647 413.909C149.546 413.502 149.647 413.198 149.749 412.791C149.85 412.487 150.054 412.182 150.155 411.877C152.39 409.033 154.116 406.595 155.335 404.462C156.554 402.329 157.265 400.501 157.468 398.977L157.671 397.454C157.773 396.641 157.875 396.133 157.875 395.829C157.875 395.422 157.976 395.321 158.078 395.625C157.874 394.914 157.671 394.203 157.468 393.696C157.265 392.985 156.859 392.375 156.656 391.969C156.351 391.461 156.046 391.156 155.843 390.953C155.538 390.648 155.03 390.445 154.523 390.344C154.015 390.242 153.405 390.242 152.694 390.344C152.187 390.445 151.679 390.547 151.272 390.75C150.764 390.953 150.358 391.156 150.053 391.258C149.647 391.664 149.342 391.969 148.936 392.172C148.631 392.477 148.225 392.781 148.022 393.086C147.413 394 146.803 395.016 146.194 395.93C145.584 396.844 144.975 397.758 144.467 398.571C143.858 399.891 143.451 401.11 143.045 402.228C142.74 403.243 142.435 404.158 142.334 404.869C142.131 405.58 142.029 406.291 141.928 406.798C141.826 407.408 141.725 407.916 141.725 408.424C141.725 409.033 141.725 409.642 141.725 410.252V412.182C140.912 412.994 140.302 413.807 139.795 414.518C139.287 415.229 138.88 416.042 138.576 416.651C136.747 418.682 135.427 420.105 134.411 421.222C133.396 422.238 132.786 422.847 132.583 422.847C132.278 422.949 132.075 422.847 131.872 422.542C131.669 422.339 131.567 421.933 131.466 421.527C131.364 420.917 131.364 419.8 131.364 418.276C131.364 416.651 131.466 414.518 131.567 411.877C131.974 408.525 132.278 405.58 132.583 403.243C132.888 400.806 133.192 398.774 133.497 397.149C133.599 396.54 133.599 396.032 133.599 395.524C133.7 395.118 133.7 394.61 133.7 394.305L136.747 393.289C137.154 393.188 137.255 392.578 137.357 391.664C137.357 390.648 137.255 389.226 136.951 387.398C136.849 386.89 136.849 386.585 136.747 386.281C136.646 385.976 136.443 385.874 136.239 385.773C136.036 385.57 135.833 385.468 135.732 385.367C135.63 385.265 135.529 385.163 135.427 385.062C135.427 384.452 135.529 383.538 135.833 382.319C136.138 381.202 136.138 380.186 136.138 379.475C135.935 378.561 135.63 377.952 135.224 377.546C134.817 377.139 134.208 376.936 133.497 377.139C132.177 377.342 131.059 378.968 130.247 382.015C129.536 385.062 128.52 386.687 127.504 386.89L125.981 386.687C125.473 386.789 125.067 386.992 124.762 387.093C124.356 387.195 123.949 387.296 123.645 387.5C123.34 387.398 122.832 387.398 122.223 387.398C121.613 387.398 120.902 387.5 120.09 387.601C119.683 387.703 119.277 387.906 118.769 388.109C118.16 388.109 117.55 388.007 116.738 388.109C116.027 388.109 115.214 388.211 114.3 388.312C113.487 388.414 112.878 389.023 112.573 390.141C112.269 391.156 112.269 392.68 112.573 394.711C112.573 394.914 112.776 395.219 112.979 395.321C113.183 395.524 113.487 395.625 113.893 395.727C114.097 395.829 114.401 395.829 114.706 395.93C115.011 395.93 115.316 396.133 115.62 396.235C115.824 396.235 116.331 396.133 116.839 396.133C117.449 396.032 117.855 396.032 118.058 396.032L123.848 395.321C124.051 395.321 124.356 395.219 124.762 395.016C125.168 394.813 125.473 394.813 125.676 394.711C125.879 394.61 126.082 394.711 126.184 394.813C126.285 394.914 126.387 395.016 126.387 395.219C126.082 396.032 125.879 396.743 125.676 397.352C125.473 397.962 125.27 398.368 125.066 398.774C123.543 402.736 121.918 406.189 120.293 409.236C118.566 412.283 116.839 414.924 114.909 417.362C114.604 417.87 114.3 418.378 114.097 418.784C113.894 419.19 113.69 419.495 113.487 419.8L113.386 420.206C112.979 420.612 112.472 421.12 112.065 421.628C111.659 422.136 111.151 422.542 110.846 423.05C110.338 423.558 109.729 424.066 109.221 424.269C108.713 424.574 108.104 424.675 107.596 424.777C107.19 424.878 106.783 424.777 106.377 424.777C106.072 424.675 105.768 424.472 105.666 424.167C105.463 424.066 105.158 423.355 104.65 422.136C104.143 420.917 103.838 420.104 103.533 419.495C103.33 418.581 102.924 417.565 102.619 416.651C102.314 415.737 101.908 414.823 101.603 413.909C101.197 412.893 100.588 412.08 99.775 411.674C98.9624 411.268 98.0482 411.166 96.9309 411.268C96.5246 411.268 96.22 411.471 95.8137 411.674C95.4074 411.979 95.1026 412.385 94.8994 412.893C94.29 414.112 93.0712 415.838 91.1413 417.87C89.313 420.003 88.0941 421.628 87.3831 422.847V423.355L87.18 423.66C86.5706 424.371 86.0626 424.98 85.5548 425.386C85.0469 425.894 84.6407 426.3 84.3359 426.605C83.0155 427.215 82.1013 427.722 81.2888 428.027C80.4762 428.433 80.0698 428.535 79.9683 428.535C77.6321 428.84 75.8038 428.332 74.3818 427.011C72.9597 425.691 72.0456 423.456 71.6394 420.511C72.4519 418.886 73.1629 417.159 73.8739 415.331C74.3818 414.213 74.8896 413.198 75.3975 412.385C75.9054 411.471 76.2102 410.861 76.5149 410.252C76.718 409.541 76.9212 409.033 77.0228 408.525C77.1243 408.017 77.3274 407.611 77.4289 407.306C77.7337 406.595 78.0383 405.986 78.343 405.478C78.5462 404.97 78.851 404.564 78.9525 404.158C79.2573 403.447 79.4605 402.736 79.5621 402.228C79.6637 401.72 79.765 401.212 79.8666 400.806C80.0697 400.196 80.3747 399.688 80.5778 399.181C80.781 398.673 80.9839 398.266 81.1871 397.962C81.4918 396.743 81.6949 395.524 81.898 394.407C81.9996 393.391 82.2029 392.477 82.3045 391.664C82.6092 390.75 82.8122 390.039 82.9138 389.328C83.0154 388.617 83.2185 388.109 83.2185 387.703L83.1171 387.093C83.2187 386.789 83.2185 386.484 83.2185 386.281C83.117 385.57 83.2185 384.656 83.4216 383.64C83.6248 382.624 83.625 381.913 83.625 381.304C83.625 380.796 83.5234 379.983 83.625 378.968C83.625 377.952 83.6249 377.139 83.5233 376.631C83.2186 374.701 82.8123 373.483 81.9997 372.873C81.1871 372.264 79.9683 372.061 78.2416 372.365C77.3274 372.467 76.4133 373.279 75.4992 374.6C74.585 375.92 73.4677 377.952 72.452 380.593C71.6394 382.523 70.9283 384.452 70.3189 386.281C69.7094 388.109 69.3032 389.937 68.8969 391.563C68.5922 392.578 68.389 393.492 68.0843 394.203C67.8812 395.016 67.6781 395.727 67.3733 396.235C66.8655 399.18 66.3576 401.923 66.0528 404.462C65.6466 407.002 65.3419 409.338 65.3419 411.471L65.7481 412.283C65.5449 412.69 65.4433 413.705 65.4433 415.331C65.3417 416.956 65.4433 418.175 65.4433 418.886C65.6465 419.089 65.6465 419.393 65.7481 419.8C65.7481 420.104 65.8498 420.308 65.8498 420.511C65.8498 420.612 65.748 420.815 65.6464 420.917L63.0057 424.066C62.5994 424.574 62.2945 425.183 62.0914 425.691C61.8882 426.199 61.6852 426.605 61.4821 426.91C61.1774 427.215 60.8726 427.519 60.6694 427.722C60.4663 427.926 60.1616 428.027 59.9585 428.027C59.7553 428.027 59.5521 428.027 59.349 427.824C59.1458 427.722 58.9427 427.418 58.8411 427.113C59.0442 426.707 59.349 426.3 59.6537 425.589C59.9584 424.878 60.1617 424.167 60.2633 423.152C60.4664 422.237 60.5678 421.425 60.5678 420.815C60.6693 420.003 60.5678 419.495 60.5678 418.886C60.1615 416.143 59.3489 414.213 58.0285 412.994C56.708 411.776 54.9813 411.369 52.7467 411.674C52.5436 411.674 52.0358 411.877 51.3248 412.182C50.6138 412.588 49.4965 413.096 48.2776 413.807L47.8712 413.401C48.1759 412.69 48.3792 411.877 48.5824 411.166C48.4808 410.861 48.2775 410.658 47.8712 410.557C47.5665 410.455 47.0586 410.455 46.3476 410.557C45.7382 410.658 45.2304 410.861 44.7226 411.166C44.2147 411.471 43.8083 411.877 43.3004 412.385C42.9957 412.893 42.5894 413.401 42.2847 413.909C41.98 414.416 41.5738 414.924 41.1675 415.432C40.8628 415.838 40.4565 416.245 40.1518 416.651C39.7455 417.057 39.3391 417.464 39.0344 417.971C38.5265 418.479 38.222 418.987 37.9173 419.495C37.6125 420.003 37.4093 420.409 37.3077 420.815C37.2061 420.917 37.1047 421.019 36.9015 421.222C37.1047 420.714 37.2061 420.308 37.3077 419.8C37.9172 417.362 38.0187 414.416 37.5108 411.065C37.2061 409.236 36.7999 407.509 36.292 406.087C35.7841 404.564 35.1748 403.142 34.3622 401.923C33.7528 400.806 32.8386 399.688 31.8229 398.571C30.7056 397.352 29.385 396.133 27.8614 394.711C27.6583 394.508 27.3536 394.305 27.1504 394C26.9473 393.797 26.7442 393.696 26.6426 393.594C25.6269 392.883 24.7127 392.274 24.1033 391.766C23.4938 391.258 23.0876 390.953 22.8844 390.648C21.3608 389.937 20.3452 389.328 19.6342 388.719C18.9232 388.109 17.2978 387.398 14.6569 386.585C13.7428 386.281 12.8287 386.078 11.9145 385.773C11.0004 385.468 10.1877 385.265 9.27354 384.96L7.85162 385.163C7.54691 384.96 6.93737 384.757 6.22636 384.554C5.31221 384.656 3.99196 385.874 2.3668 388.109C0.640059 390.344 -0.172573 391.867 0.0305728 392.781C0.0305728 392.985 0.233569 393.391 0.63986 393.899C1.04615 394.407 1.75731 395.118 2.56989 396.032C3.38247 397.047 4.09348 397.86 4.60135 398.571C5.10921 399.18 5.51535 399.79 5.7185 400.196L5.10921 415.127L5.61707 416.753C5.5155 417.768 5.51555 418.784 5.41398 419.597C5.41398 420.409 5.31231 421.12 5.31231 421.527C5.41388 423.253 5.41383 424.574 5.5154 425.488C5.5154 426.402 5.5154 427.011 5.5154 427.215C5.41383 429.043 5.41388 430.871 5.31231 432.7C5.31231 433.004 5.51535 433.512 5.7185 434.121C5.92164 434.731 6.02336 435.239 6.12494 435.544C6.32808 436.762 5.61702 437.778 4.29658 438.692C2.87456 439.606 2.26512 440.216 2.26512 440.622C2.26512 440.927 2.46827 441.232 2.77299 441.536C3.07771 441.74 3.48405 441.943 4.09348 442.146C4.49977 442.349 4.90601 442.552 5.31231 442.654C5.7186 442.857 6.12484 442.958 6.53113 443.06L7.14066 445.701C6.93752 447.224 6.8358 448.545 6.73422 449.561C6.63265 450.576 6.63265 451.49 6.73422 452.1C7.03894 454.233 7.44528 458.601 8.05472 459.616C8.66416 460.632 9.47689 461.038 10.4926 460.937C11.0005 460.835 11.5083 460.53 12.0162 460.023C12.5241 459.515 13.0318 458.804 13.4381 457.89C13.8444 457.077 14.1491 456.468 14.4539 455.858C14.7586 455.249 14.9617 451.694 15.1648 451.084C14.3522 450.373 13.8443 449.662 13.3365 449.053C12.9302 448.443 12.6255 447.834 12.6255 447.326C12.5239 445.904 12.4223 444.38 12.3207 442.857C12.1176 440.521 12.1176 439.302 12.3207 439.099C12.5239 438.997 13.0318 438.794 13.946 438.692C14.2507 438.692 14.6569 438.489 15.1648 438.083C15.6727 437.778 16.3838 437.372 17.0948 436.864C19.8373 435.239 22.3765 433.817 24.8142 432.496C26.0331 431.785 27.0489 431.176 27.9631 430.668C26.4395 433.004 30.1975 434.426 33.651 431.582C34.2604 431.074 34.4636 430.77 34.6667 430.77C34.9714 430.77 35.1747 430.77 35.2763 430.871C35.3778 430.973 35.581 431.176 35.581 431.379C35.581 431.582 35.4795 432.395 35.3779 433.614C35.1748 434.833 35.1747 435.848 35.2763 436.661C35.4794 438.489 36.3935 439.911 38.0187 441.232C39.6438 442.552 41.2692 442.958 42.9959 442.755C43.3006 442.654 43.6053 442.552 44.0116 442.45C44.5195 442.247 44.7225 442.146 44.9257 442.146C45.4335 442.044 45.9415 441.943 46.5509 441.638C47.1604 441.333 47.7698 440.927 48.5824 440.419C49.8013 439.708 50.9184 438.895 51.9341 437.88C52.8482 436.864 53.6609 435.848 54.2703 434.731C54.575 435.34 55.0829 435.747 55.5908 436.051C56.0987 436.255 56.7082 436.458 57.4192 436.255C58.0286 436.153 58.6381 435.95 59.2475 435.645C59.7554 435.239 60.4662 434.731 61.0756 434.121C61.5835 433.614 62.0915 433.106 62.4978 432.598C63.0057 432.09 63.4119 431.481 63.9197 430.973C64.6307 430.16 65.1387 429.551 65.545 428.84C65.9513 428.23 66.3575 427.722 66.7638 427.215C67.0685 427.418 67.2716 427.621 67.4748 427.824C67.6779 428.027 67.7796 428.23 67.8812 428.535C68.6938 431.176 69.7094 433.207 71.0298 434.325C72.3503 435.544 73.8739 436.051 75.6006 435.848C76.1085 435.747 76.9211 435.747 77.9368 435.747C78.9525 435.645 79.6635 435.645 80.1714 435.544C81.0855 435.442 81.9997 435.036 83.0154 434.528C83.9296 434.02 84.8439 433.207 85.6564 432.293C86.3674 431.481 87.0783 430.668 87.7893 429.855C88.5003 428.941 89.2114 428.23 89.9224 427.316H89.8208C90.8365 425.894 91.6492 424.777 92.4618 423.964C93.2743 423.152 93.7823 422.745 94.2901 422.745C94.4933 422.745 94.6962 422.847 95.1025 423.152C95.4072 423.456 95.8136 423.964 96.2199 424.574C96.6262 424.98 96.9309 425.285 97.2356 425.691C97.5404 425.996 97.7434 426.3 97.9466 426.504C99.3686 429.246 100.486 430.973 101.4 431.481C102.314 431.988 104.143 432.09 106.987 431.684C107.495 431.582 108.104 431.379 108.916 430.77C109.729 430.16 110.745 429.348 111.862 428.332C112.878 427.316 113.792 426.504 114.503 425.793C115.214 425.082 115.823 424.371 116.23 423.863C116.433 423.355 116.738 422.949 116.839 422.644C117.042 422.339 117.144 422.136 117.245 421.933C118.667 420.104 119.988 418.378 121.41 416.753C122.324 415.737 123.035 414.721 123.645 413.807C124.254 412.893 124.762 412.08 125.066 411.268L125.473 410.963C125.778 411.064 125.879 411.166 125.981 411.369C125.676 412.283 125.473 413.096 125.27 413.807C125.27 415.026 125.27 416.245 125.168 417.464C125.168 418.175 125.168 418.784 125.168 419.393C125.168 419.901 125.168 420.308 125.168 420.612C125.067 420.815 125.067 421.019 124.965 421.323C124.762 422.136 124.762 423.253 124.762 424.574C124.864 425.894 124.965 427.418 125.27 429.144C125.473 430.77 125.981 431.887 126.793 432.598C127.504 433.309 128.622 433.614 129.942 433.411C130.551 433.309 131.161 433.106 131.872 432.598C132.481 432.192 133.192 431.481 133.802 430.566C134.208 429.957 134.716 429.246 135.122 428.535C135.529 427.824 136.036 427.113 136.544 426.504C137.052 425.894 137.458 425.285 137.763 424.878C138.169 424.371 138.474 423.964 138.779 423.558C139.49 422.949 140.099 422.339 140.607 421.831C141.115 421.323 141.42 420.917 141.725 420.409V420.308C142.029 419.901 142.334 419.495 142.537 419.19C142.842 418.886 143.045 418.784 143.35 418.784C143.654 418.682 143.959 418.886 144.264 419.19C144.569 419.495 144.873 419.901 145.28 420.511C145.787 421.323 146.092 421.933 146.498 422.542C146.905 423.152 147.21 423.456 147.616 423.761C148.225 424.269 149.038 424.675 150.053 424.878C150.968 425.082 151.983 425.082 153.101 424.98C153.913 424.878 154.726 424.675 155.335 424.472C155.945 424.269 156.452 423.964 156.859 423.66C158.078 423.456 159.296 422.847 160.617 421.831C161.937 420.714 163.36 419.292 164.883 417.26C165.289 416.549 165.493 416.042 165.594 415.838C165.696 415.534 165.797 415.432 165.899 415.331C166.61 414.213 167.219 413.299 167.727 412.588C168.235 411.877 168.641 411.166 169.048 410.557L169.454 410.963C169.556 411.471 169.556 411.979 169.454 412.69C169.454 413.401 169.352 414.112 169.251 415.026C168.946 416.956 168.743 418.682 168.743 420.409C168.743 422.034 168.844 423.66 169.048 425.082C169.251 426.504 169.657 427.519 170.47 428.23C171.079 428.84 172.095 429.043 173.314 428.941C174.126 428.84 174.736 428.433 175.142 427.824C175.65 427.113 176.056 426.504 176.361 425.894C176.665 425.386 177.072 424.98 177.376 424.675C177.681 424.371 177.884 424.066 177.986 423.761C178.494 423.05 178.9 422.339 179.306 421.527C179.713 420.815 180.221 420.104 180.627 419.393C181.338 418.276 182.151 417.057 183.166 415.838C183.268 415.838 184.588 416.549 187.026 418.175C189.464 419.698 191.19 420.409 192.104 420.308C193.019 420.206 193.831 419.901 194.644 419.393C195.456 418.886 196.269 418.073 197.082 417.057C197.793 416.346 198.402 415.534 199.011 414.721C199.621 413.909 200.332 413.096 200.942 412.283L200.84 412.182C201.043 411.877 201.246 411.572 201.246 411.369C201.348 411.166 201.449 410.963 201.449 410.76C201.957 410.15 202.363 409.744 202.668 409.236C202.973 408.83 203.278 408.424 203.582 408.22C203.785 408.017 204.09 407.713 204.497 407.103C205.004 406.494 205.512 405.681 206.325 404.665C206.934 403.751 207.442 403.142 207.848 402.736C208.255 402.228 208.661 402.025 208.966 402.025C209.27 402.025 209.575 402.025 209.677 402.126C209.88 402.228 209.981 402.329 209.981 402.634C210.083 402.837 210.083 403.04 209.981 403.345C209.981 403.65 209.88 404.056 209.88 404.462C209.778 404.869 209.677 405.275 209.677 405.478C209.575 405.783 209.575 405.986 209.575 406.087C209.169 408.728 208.864 411.166 208.458 413.096C208.153 415.026 207.848 416.753 207.544 418.073C207.747 418.886 207.95 419.8 208.255 420.612C208.458 421.425 209.169 421.73 210.388 421.628C210.997 421.526 211.607 421.425 212.013 421.222C212.521 421.019 212.927 420.714 213.232 420.308C213.536 419.901 213.943 419.495 214.247 419.089C214.552 418.581 214.958 418.175 215.263 417.768C216.584 415.94 217.701 414.416 218.513 413.096C219.428 411.776 220.037 410.76 220.342 409.947C220.443 409.541 220.85 409.135 221.357 408.728C221.967 408.322 222.78 407.408 223.998 406.087C224.608 405.376 225.116 404.869 225.623 404.361C226.131 403.954 226.639 403.548 227.249 403.345L227.655 403.447C228.468 404.259 229.179 404.869 229.788 405.478C230.398 406.087 230.905 406.494 231.413 406.9C232.023 407.814 232.53 408.525 233.038 409.236C233.445 409.744 233.851 410.15 234.156 410.354C234.664 410.963 235.273 411.268 235.984 411.572C236.695 411.776 237.304 411.776 238.117 411.674C238.726 411.572 239.336 411.369 239.844 411.065C240.453 410.76 241.063 410.15 241.672 409.439C242.18 408.931 242.586 408.424 243.094 407.916C243.602 407.408 244.008 406.9 244.516 406.392C245.532 404.97 246.345 403.751 247.157 403.04C247.868 402.228 248.477 401.821 248.985 401.72C249.188 401.72 249.392 401.821 249.798 402.126C250.103 402.431 250.509 402.939 251.017 403.548C251.321 403.954 251.728 404.259 252.032 404.665C252.337 404.97 252.54 405.173 252.744 405.478C254.166 408.322 255.283 409.947 256.197 410.455C257.111 410.963 258.939 411.065 261.783 410.658C262.19 410.557 262.901 410.252 263.713 409.642C264.526 409.033 265.542 408.322 266.659 407.205C267.675 406.189 268.589 405.376 269.3 404.665C270.011 403.954 270.62 403.243 271.027 402.736C271.433 402.025 271.636 401.517 271.738 401.314C271.839 401.11 271.941 400.907 272.042 400.704C272.652 399.587 273.363 398.774 273.871 397.962C274.378 397.251 274.886 396.54 275.191 396.032L275.496 396.438C275.597 396.844 275.597 397.454 275.496 398.165C275.496 398.876 275.394 399.587 275.293 400.501C274.988 402.329 274.785 404.158 274.785 405.884C274.785 407.509 274.785 409.135 275.09 410.658C275.293 412.08 275.699 413.096 276.41 413.705C277.121 414.315 278.035 414.518 279.356 414.315C280.168 414.213 280.778 413.909 281.184 413.198C281.59 412.588 282.098 411.877 282.403 411.268C282.707 410.76 283.114 410.354 283.419 410.049C283.723 409.744 283.926 409.439 284.028 409.135C284.536 408.424 284.942 407.713 285.348 407.002C285.755 406.291 286.161 405.58 286.669 404.869C287.38 403.65 288.192 402.532 289.208 401.314C289.411 401.212 290.63 402.025 293.068 403.65C295.506 405.275 297.131 405.986 298.147 405.884C299.061 405.681 299.873 405.376 300.686 404.869C301.498 404.361 302.311 403.65 303.124 402.634C303.835 401.821 304.444 401.009 305.054 400.196C305.663 399.384 306.374 398.571 306.983 397.758C306.78 397.149 311.859 389.836 310.132 389.023ZM26.5409 424.574C26.2362 424.98 25.6268 425.488 25.0173 426.199C24.5095 426.707 24.1034 427.113 23.6971 427.418C23.2908 427.824 22.8844 428.129 22.5797 428.332C21.7671 428.84 21.0561 429.348 20.3451 429.754C19.6341 430.16 18.9232 430.77 18.1106 431.277C16.9933 432.09 15.9775 432.699 15.2665 433.106C14.5555 433.512 13.9459 433.715 13.6412 433.715C13.4381 433.715 13.2351 433.715 13.0319 433.512C12.8288 433.411 12.7272 433.106 12.7272 432.801C12.524 431.481 12.5239 429.652 12.6255 427.418C12.7271 425.183 12.9302 422.441 13.3365 419.19L12.7272 417.362C13.0319 416.448 13.4382 413.807 14.0477 409.439C14.6571 405.072 14.8602 402.634 14.7586 402.025C14.5555 400.196 12.3207 397.758 8.25782 394.508C8.25782 394.305 8.25791 394.102 8.35949 394.102C8.46106 394 8.56253 393.899 8.76568 393.899C9.88298 394.203 10.7972 394.61 11.6098 394.813C12.5239 395.118 13.2349 395.219 13.8443 395.422C14.2506 395.727 14.5554 396.032 14.9617 396.235C15.2664 396.54 15.6726 396.743 15.8758 396.844C18.3135 398.368 20.2435 399.79 21.767 401.009C23.1891 402.228 24.3065 403.345 24.9159 404.158C25.119 404.564 25.4238 404.97 25.7285 405.275C25.9317 405.478 26.2363 405.783 26.4395 405.884C26.6426 406.087 26.8456 406.291 27.0488 406.494C27.2519 406.595 27.3535 406.798 27.3535 407.002L27.6583 408.119C28.3693 409.236 28.8773 410.455 29.2836 411.572C29.6899 412.69 29.9945 413.807 30.1976 414.924C30.4008 416.854 30.4009 418.479 29.7914 420.003C29.2836 421.425 28.471 422.745 27.2521 423.863C27.1505 423.964 26.8456 424.167 26.5409 424.574ZM54.0672 425.894C54.0672 426.504 53.9657 427.113 53.8641 427.519C53.7626 427.926 53.661 428.23 53.3563 428.433C53.0515 429.043 52.6452 429.652 52.2389 430.262C51.4263 431.988 50.4105 433.309 49.3948 434.223C48.2775 435.137 47.0587 435.747 45.6366 435.95C44.7225 436.051 44.113 435.95 43.6052 435.544C43.0973 435.137 42.7927 434.528 42.6911 433.715C42.5896 433.207 42.5896 432.7 42.6911 431.988C42.7927 431.277 42.8942 430.465 43.0973 429.449C43.3005 428.332 43.5036 427.418 43.8083 426.808C44.113 426.199 44.3162 425.894 44.6209 425.793C45.1288 425.589 45.535 425.488 45.8397 425.183C46.1444 424.98 46.5509 424.574 46.754 424.167C47.1603 423.253 47.5665 422.441 47.8712 421.628C48.0743 421.12 48.3792 420.714 48.5824 420.409C48.8871 420.104 48.9885 419.901 49.1917 419.8C50.2074 419.8 50.9185 419.8 51.5279 419.8C52.0358 419.901 52.4421 419.901 52.5436 420.003C52.8483 420.104 53.0515 420.409 53.3563 420.917C53.7626 421.425 54.0671 422.136 54.4734 422.948L54.0672 425.894ZM71.3346 410.557C71.233 410.15 71.3347 409.338 71.4363 408.22C71.6394 407.103 71.8423 405.681 72.2486 403.853C72.6549 402.634 72.9597 401.517 73.366 400.501C73.5692 399.688 73.874 398.977 73.9756 398.368C74.0771 397.86 74.1786 397.454 74.077 397.251C73.9754 395.93 74.1785 394.407 74.788 392.781C75.499 391.156 76.5149 389.531 78.0385 387.601L78.343 387.703C78.343 388.312 78.2416 388.922 78.2416 389.531C78.14 390.141 78.14 390.75 78.2416 391.359C78.2416 392.07 77.9369 394 77.2259 396.946C76.5148 399.892 76.0069 401.72 75.6006 402.431C75.1943 403.447 74.7882 404.462 74.4834 405.275C74.0771 406.087 73.7724 406.697 73.6708 407.306C73.2645 408.424 72.9598 409.236 72.6551 409.846C72.3504 410.455 72.0455 410.76 71.7408 410.861L71.3346 410.557ZM149.343 406.087C149.139 406.494 148.936 406.697 148.632 406.697C148.327 406.798 148.225 406.697 148.124 406.697C148.022 406.595 147.92 406.494 147.92 406.291C147.819 405.478 148.225 404.056 149.139 402.228C150.054 400.298 150.764 399.282 151.475 399.181C151.679 399.181 151.882 399.181 151.983 399.384C152.085 399.587 152.187 399.79 152.187 399.993C152.288 400.399 152.186 400.907 152.085 401.314C151.882 401.821 151.78 402.228 151.374 402.736C151.171 403.142 150.866 403.447 150.663 403.853C150.358 404.259 150.155 404.665 149.85 404.97C149.749 405.376 149.546 405.681 149.343 406.087Z" fill="#00426D"/>
<path fill-rule="evenodd" clip-rule="evenodd" d="M285.958 39.8165C287.38 36.4646 288.09 32.7064 288.09 28.8467C288.09 12.8997 275.089 0 259.142 0C243.195 0 230.296 12.8997 230.296 28.8467C230.296 29.3545 230.296 29.8624 230.397 30.3703H55.3874C24.9156 30.3703 0.0302734 55.2556 0.0302734 85.6258V285.115C0.0302734 315.485 24.9156 340.37 55.3874 340.37H255.181C285.551 340.37 310.538 315.485 310.538 285.115V85.7274C310.538 66.6317 300.686 49.7706 285.958 39.8165Z" fill="#00426D"/>
<path fill-rule="evenodd" clip-rule="evenodd" d="M276.102 123.614V185.37V247.228V308.984H242.278V275.872L240.247 281.966L237.708 287.959L234.762 293.545L231.41 298.624L229.582 300.859L227.652 302.89L223.487 306.14L221.253 307.359L218.917 308.375L216.58 308.883L214.143 308.984H179.709L172.092 254.034L189.257 254.44L194.539 254.338L199.821 254.034L205.103 252.916L207.642 252.104L209.877 250.986L210.892 249.768L211.705 248.244L212.416 246.822L212.924 245.197L213.228 243.368L213.33 241.439L213.228 237.376L212.518 233.11L211.299 228.742L209.877 224.273L208.15 220.007L188.343 180.597L203.884 150.633L206.017 145.757L207.744 141.491L208.861 137.631L209.673 134.178L209.877 131.029L209.775 128.388L209.369 126.052L208.556 124.021L207.439 122.294L206.017 120.872L204.29 119.754L202.259 118.84L200.126 118.129L197.789 117.723L195.148 117.418H192.406H178.694L179.202 126.458L179.303 135.6L178.999 144.741L178.186 153.883L177.17 162.821L175.748 171.557L174.022 179.784L173.006 183.644L172.092 187.402L170.873 191.363L169.349 195.325L165.896 203.654L163.864 208.021L161.731 212.389L156.653 221.226L154.012 225.796L151.168 230.266L144.972 239.306L138.471 248.142L135.017 252.51L131.666 256.878V308.984H104.139V279.528L98.1465 308.984H34.4604V247.228V185.37V123.614V61.858H68.2842L68.0811 158.047L67.9795 254.44H104.139V190.855V127.372H131.666V192.074L134.408 187.402L137.658 181.714L140.909 175.416L144.058 168.611L146.901 161.501L149.238 154.289L150.253 150.633L150.863 147.179L151.269 143.624L151.472 140.374L151.168 132.857L150.253 127.474L149.441 125.646L148.628 124.122L147.613 122.903L146.495 122.091L143.753 121.278L140.503 121.075L132.478 121.38H96.4198L104.139 62.1627H140.198L143.651 62.2643L147.105 62.8738L150.05 63.6863L153.097 64.9052L155.84 66.4288L158.379 68.1555L160.919 70.187L163.052 72.5232L165.286 74.9609L167.115 77.9065L170.466 84.0009L171.99 87.4543L173.31 91.0094L174.529 94.666L175.443 98.6273L180.522 61.858H208.658L212.01 62.0612L215.159 62.8738L218.002 63.9911L220.846 65.4131L223.589 67.4445L226.027 69.7807L228.363 72.5232L230.394 75.5704L232.426 78.8207L234.153 82.3757L235.574 86.3371L236.793 90.4L237.809 94.666L238.52 99.1352L239.028 103.808L239.13 108.581L238.926 119.45L238.215 128.998L236.997 137.733L236.285 141.999L235.473 145.96L233.442 153.883L231.105 161.806L225.417 178.87L229.074 187.402L233.543 198.473L238.215 211.576L240.45 218.686L242.278 226.101V143.929V61.858H276.102V123.614Z" fill="white"/>
<path fill-rule="evenodd" clip-rule="evenodd" d="M259.14 53.4277C245.631 53.4277 234.56 42.3562 234.56 28.8471C234.56 15.3379 245.631 4.26644 259.14 4.26644C272.649 4.26644 283.721 15.3379 283.721 28.8471C283.823 42.3562 272.751 53.4277 259.14 53.4277Z" fill="#ED1C24"/>
<path d="M101.405 384.553C102.217 384.452 102.725 384.553 103.131 384.756C103.538 385.061 103.741 385.467 103.842 385.975C103.741 386.89 103.741 387.601 103.639 388.21C103.538 389.327 103.334 390.343 103.233 391.054C103.03 391.765 102.928 392.273 102.928 392.578C102.725 393.289 102.42 393.898 102.116 394.507C101.709 395.117 101.202 395.625 100.592 396.133C99.9827 396.64 99.3731 397.148 98.9668 397.352C98.5605 397.555 98.2559 397.758 98.0528 397.758C97.5449 397.758 97.0371 397.758 96.5292 397.758C96.1229 397.758 95.6149 397.859 95.107 397.961C94.7007 397.758 94.2946 397.352 93.9899 396.844C93.5836 396.234 93.4821 395.422 93.2789 394.406C93.1773 393.492 93.5836 392.273 94.4977 390.749C95.4119 389.226 96.3259 388.311 97.1385 388.108C97.5448 387.397 98.0526 386.585 98.6621 385.671C98.9668 385.467 99.2716 385.163 99.7795 384.96C100.287 384.756 100.795 384.553 101.405 384.553Z" fill="#ED1C24"/>
<path d="M255.988 363.122C256.8 363.021 257.308 363.122 257.714 363.326C258.121 363.63 258.324 364.037 258.425 364.646C258.324 365.56 258.324 366.271 258.324 366.779C258.121 367.896 258.019 368.81 257.816 369.623C257.715 370.334 257.613 370.842 257.511 371.147C257.308 371.858 257.003 372.569 256.699 373.077C256.292 373.584 255.785 374.194 255.175 374.702C254.566 375.311 254.058 375.717 253.55 375.921C253.042 376.124 252.737 376.327 252.636 376.327C252.128 376.327 251.62 376.327 251.112 376.428C250.604 376.428 250.198 376.53 249.69 376.53C249.284 376.327 248.878 376.022 248.573 375.413C248.268 374.803 247.963 373.991 247.862 372.975C247.76 372.061 248.167 370.842 249.081 369.318C249.995 367.795 250.808 366.881 251.722 366.677C252.128 365.966 252.636 365.154 253.245 364.24C253.55 364.037 253.855 363.732 254.362 363.529C254.769 363.326 255.378 363.224 255.988 363.122Z" fill="#ED1C24"/>
<path d="M389.862 0H386.307V465H389.862V0Z" fill="#00426D"/>
<path d="M509.317 312.438L486.464 286.13H482.807V312.438H465.641V242.556H482.807V270.285H485.346L509.114 242.556H529.733L500.074 277.598L531.866 312.438H509.317Z" fill="#00426D"/>
<path d="M585.092 312.438L580.216 299.741H550.76L545.885 312.438H527.398L556.651 242.556H574.325L603.578 312.438H585.092ZM565.488 261.956L556.651 284.912H574.528L565.488 261.956Z" fill="#00426D"/>
<path d="M685.847 312.438H669.189V277.598L650.906 312.438H640.342L621.958 277.395V312.438H605.3V242.556H622.16L645.624 285.826L669.087 242.556H685.847V312.438Z" fill="#00426D"/>
<path d="M728.204 242.556C736.025 242.556 742.322 244.79 746.893 249.158C751.565 253.526 753.8 259.417 753.8 266.628C753.8 274.043 751.463 279.935 746.69 284.404C741.916 288.873 735.517 291.107 727.391 291.107H710.936V312.539H693.77V242.657H728.204V242.556ZM726.273 276.684C729.625 276.684 732.266 275.77 734.196 274.043C736.126 272.215 737.04 269.879 737.04 266.933C737.04 264.089 736.024 261.753 734.095 260.026C732.165 258.3 729.524 257.385 726.273 257.385H711.037V276.786H726.273V276.684Z" fill="#00426D"/>
<path d="M821.35 280.95C821.35 291.006 818.506 298.929 812.818 305.023C807.13 311.016 799.614 314.063 790.371 314.063C780.823 314.063 773.205 311.016 767.415 305.023C761.625 299.03 758.68 291.006 758.68 280.95V242.556H775.846V280.95C775.846 286.232 777.166 290.397 779.807 293.545C782.448 296.592 786.003 298.218 790.371 298.218C794.535 298.218 797.887 296.694 800.426 293.545C802.965 290.498 804.185 286.232 804.185 280.95V242.556H821.35V280.95Z" fill="#00426D"/>
<path d="M875.693 246.314C880.873 249.869 884.123 254.846 885.444 261.143L868.583 264.597C867.973 261.448 866.45 259.01 864.215 257.385C861.879 255.658 859.34 254.846 856.394 254.846C853.652 254.846 851.316 255.557 849.589 256.877C847.862 258.198 846.948 259.924 846.948 261.956C846.948 265.003 848.878 266.933 852.636 267.847L867.161 271.097C879.959 273.941 886.358 280.747 886.358 291.412C886.358 298.624 883.615 304.108 878.13 308.07C872.646 312.031 865.739 314.063 857.613 314.063C849.487 314.063 842.58 312.234 836.892 308.476C831.204 304.718 827.954 299.538 827.04 292.834L844.815 289.38C846.44 296.287 851.112 299.741 858.629 299.741C861.879 299.741 864.317 299.03 866.145 297.709C867.973 296.389 868.888 294.662 868.888 292.529C868.888 290.904 868.379 289.584 867.465 288.568C866.551 287.552 864.824 286.841 862.387 286.333L847.76 283.184C835.267 280.34 828.969 273.535 828.969 262.972C828.969 256.268 831.509 250.884 836.587 246.923C841.666 242.962 848.37 240.93 856.597 240.93C864.114 241.032 870.513 242.759 875.693 246.314Z" fill="#00426D"/>
<path d="M948.008 257.588V312.438H930.943V257.588H908.293V242.556H970.659V257.588H948.008Z" fill="#00426D"/>
<path d="M1019.01 312.438L1014.14 299.741H984.681L979.805 312.438H961.319L990.572 242.556H1008.25L1037.5 312.438H1019.01ZM999.409 261.956L990.572 284.912H1008.45L999.409 261.956Z" fill="#00426D"/>
<path d="M1084.02 246.314C1089.2 249.869 1092.45 254.846 1093.77 261.143L1076.91 264.597C1076.3 261.448 1074.78 259.01 1072.54 257.385C1070.21 255.658 1067.67 254.846 1064.72 254.846C1061.98 254.846 1059.64 255.557 1057.92 256.877C1056.19 258.198 1055.27 259.924 1055.27 261.956C1055.27 265.003 1057.2 266.933 1060.96 267.847L1075.49 271.097C1088.29 273.941 1094.68 280.747 1094.68 291.412C1094.68 298.624 1091.94 304.108 1086.46 308.07C1080.97 312.031 1074.07 314.063 1065.94 314.063C1057.81 314.063 1050.91 312.234 1045.22 308.476C1039.53 304.718 1036.28 299.538 1035.37 292.834L1053.14 289.38C1054.77 296.287 1059.44 299.741 1066.96 299.741C1070.21 299.741 1072.64 299.03 1074.47 297.709C1076.3 296.389 1077.21 294.662 1077.21 292.529C1077.21 290.904 1076.71 289.584 1075.79 288.568C1074.88 287.552 1073.15 286.841 1070.71 286.333L1056.09 283.184C1043.59 280.34 1037.3 273.535 1037.3 262.972C1037.3 256.268 1039.84 250.884 1044.91 246.923C1049.99 242.962 1056.7 240.93 1064.92 240.93C1072.54 241.032 1078.94 242.759 1084.02 246.314Z" fill="#00426D"/>
<path d="M1117.74 242.556H1100.57V312.438H1117.74V242.556Z" fill="#00426D"/>
<path d="M1169.44 312.438L1146.59 286.13H1142.93V312.438H1125.76V242.556H1142.93V270.285H1145.47L1169.24 242.556H1189.86L1160.2 277.598L1191.99 312.438H1169.44Z" fill="#00426D"/>
<path d="M1274.15 312.438H1257.49V277.598L1239.21 312.438H1228.55L1210.16 277.395V312.438H1193.5V242.556H1210.47L1233.93 285.826L1257.39 242.556H1274.15V312.438Z" fill="#00426D"/>
<path d="M1333.68 312.438L1328.8 299.741H1299.35L1294.47 312.438H1275.98L1305.24 242.556H1322.91L1352.16 312.438H1333.68ZM1314.07 261.956L1305.24 284.912H1323.11L1314.07 261.956Z" fill="#00426D"/>
<path d="M1405.59 312.438H1353.89V242.556H1371.16V297.405H1405.59V312.438Z" fill="#00426D"/>
<path d="M1462.58 312.438L1457.71 299.741H1428.25L1423.37 312.438H1404.89L1434.14 242.556H1451.81L1481.07 312.438H1462.58ZM1442.98 261.956L1434.14 284.912H1452.02L1442.98 261.956Z" fill="#00426D"/>
<path d="M1510.52 312.438H1493.05V290.701L1466.03 242.556H1484.82L1501.99 273.231L1519.05 242.556H1538.25L1510.52 290.498V312.438Z" fill="#00426D"/>
<path d="M1581.01 312.438L1576.14 299.741H1546.68L1541.81 312.438H1523.32L1552.57 242.556H1570.25L1599.5 312.438H1581.01ZM1561.31 261.956L1552.47 284.912H1570.35L1561.31 261.956Z" fill="#00426D"/>
</svg>
